<svg xmlns="http://www.w3.org/2000/svg" viewBox="0 0 512 512" width="512" height="512">
  <!-- Clean white background card -->
  <rect width="512" height="512" rx="112" fill="#ffffff" />
  <!-- Centered Gmail envelope icon -->
  <g transform="translate(56, 98)">
    <path d="M37.5,0 C16.7,0 0,16.7 0,37.5 L0,279.2 C0,300 16.7,316.7 37.5,316.7 L87.5,316.7 L87.5,75 L200,162.5 L312.5,75 L312.5,316.7 L362.5,316.7 C383.3,316.7 400,300 400,279.2 L400,37.5 C400,16.7 383.3,0 362.5,0 L300,0 L200,75 L100,0 L37.5,0 Z" fill="#EA4335" />
    <path d="M0,37.5 L0,279.2 C0,300 16.7,316.7 37.5,316.7 L87.5,316.7 L87.5,75 L0,37.5 Z" fill="#4285F4" />
    <path d="M400,37.5 L400,279.2 C400,300 383.3,316.7 362.5,316.7 L312.5,316.7 L312.5,75 L400,37.5 Z" fill="#34A853" />
    <path d="M87.5,75 L200,162.5 L312.5,75 L312.5,0 L300,0 L200,75 L100,0 L87.5,0 L87.5,75 Z" fill="#FBBC05" />
  </g>
</svg>
